<svg xmlns="http://www.w3.org/2000/svg" width="30" height="31" viewBox="0 0 30 31" fill="none">
  <g clip-path="url(#clip0_1003_4181)">
    <path d="M15.0001 0.987061C7.0471 0.987061 0.600098 7.43406 0.600098 15.3871C0.600098 23.3401 7.0471 29.7871 15.0001 29.7871C22.9531 29.7871 29.4001 23.3401 29.4001 15.3871C29.4001 7.43406 22.9531 0.987061 15.0001 0.987061ZM18.4111 10.9381H16.2466C15.9901 10.9381 15.7051 11.2756 15.7051 11.7241V13.2871H18.4126L18.0031 15.5161H15.7051V22.2076H13.1506V15.5161H10.8331V13.2871H13.1506V11.9761C13.1506 10.0951 14.4556 8.56656 16.2466 8.56656H18.4111V10.9381Z" fill="white"/>
  </g>
  <defs>
    <clipPath id="clip0_1003_4181">
      <rect width="30" height="30" fill="white" transform="translate(0 0.386963)"/>
    </clipPath>
  </defs>
</svg>