<svg xmlns="http://www.w3.org/2000/svg" width="174" height="34" viewBox="0 0 174 34" fill="none">
  <g clip-path="url(#clip0_1003_4174)">
    <path d="M129.851 8.44599C131.214 8.44599 132.452 8.61938 133.564 8.96617C134.676 9.31295 135.615 9.76138 136.38 10.3115C136.858 10.6463 137.235 11.017 137.51 11.4236C137.785 11.8301 137.923 12.3563 137.923 13.002V25.5581L137.917 25.8995C137.877 27.0232 137.64 28.0035 137.205 28.8406C136.727 29.7614 136.075 30.5267 135.25 31.1366C134.425 31.7464 133.456 32.1949 132.344 32.4819C131.232 32.7689 130.042 32.9124 128.775 32.9124C126.598 32.9124 124.888 32.6194 123.645 32.0334C122.401 31.4475 121.779 30.4968 121.779 29.1814C121.779 28.6313 121.893 28.147 122.12 27.7285C122.347 27.31 122.604 26.9931 122.891 26.7778C123.585 27.1605 124.368 27.4834 125.241 27.7464C126.114 28.0095 127.017 28.1411 127.95 28.1411C129.241 28.1411 130.269 27.9258 131.035 27.4953C131.8 27.0648 132.183 26.3712 132.183 25.4146V24.8406L131.91 24.9527C130.983 25.3085 129.878 25.4863 128.595 25.4863C127.519 25.4863 126.497 25.3249 125.528 25.002C124.559 24.6792 123.71 24.1769 122.981 23.4953C122.251 22.8137 121.665 21.9348 121.223 20.8585C120.781 19.7823 120.559 18.5028 120.559 17.02C120.559 15.5611 120.793 14.2935 121.259 13.2173C121.725 12.1411 122.371 11.2502 123.196 10.5446C124.021 9.83911 125.002 9.31295 126.138 8.96617C127.274 8.61938 128.512 8.44599 129.851 8.44599ZM33.2869 9.00291C35.4197 9.00291 37.165 9.48149 38.5227 10.4386C39.8804 11.3958 40.6841 13.0864 40.9338 15.5106H36.3769L36.3333 15.2424C36.2301 14.7137 36.0313 14.2309 35.737 13.7939C35.2377 13.1073 34.4626 12.7639 33.4118 12.7639C31.9136 12.7639 30.8888 13.5078 30.3374 14.9956C30.0461 15.7863 29.9004 16.8371 29.9004 18.148C29.9004 19.3964 30.0461 20.4004 30.3374 21.1599C30.868 22.5748 31.8668 23.2823 33.3337 23.2823C34.3741 23.2823 35.1128 23.0014 35.5498 22.4396C35.9867 21.8778 36.252 21.1495 36.3457 20.2548H40.887L40.8561 20.5656C40.7054 21.8037 40.2267 22.9798 39.42 24.0938C38.0259 26.0393 35.9607 27.0121 33.2245 27.0121C30.4883 27.0121 28.4751 26.2006 27.185 24.5776C25.8949 22.9546 25.2499 20.8478 25.2499 18.2572C25.2499 15.3337 25.9626 13.0604 27.3879 11.4374C28.8132 9.81441 30.7796 9.00291 33.2869 9.00291ZM74.6185 8.95609C76.0334 8.95609 77.3079 9.22139 78.4419 9.75199C79.5759 10.2826 80.5123 11.1201 81.251 12.2645C81.9168 13.2737 82.3486 14.4442 82.5462 15.7759C82.6607 16.5562 82.7075 17.6798 82.6867 19.1467H71.0447L71.0606 19.4425C71.1718 20.992 71.7023 22.0898 72.6521 22.7361C73.2659 23.1627 74.0046 23.3759 74.8681 23.3759C75.7837 23.3759 76.5276 23.1158 77.0998 22.5956C77.4119 22.3147 77.6876 21.9246 77.9269 21.4252H82.4682L82.4345 21.6584C82.2705 22.5921 81.7563 23.5392 80.892 24.4996C79.4355 26.1538 77.3963 26.9809 74.7745 26.9809C72.6105 26.9809 70.7014 26.2838 69.0471 24.8897C67.3929 23.4956 66.5658 21.2275 66.5658 18.0855C66.5658 15.1412 67.3123 12.8836 68.8053 11.3126C70.2982 9.74158 72.236 8.95609 74.6185 8.95609ZM105.848 2.70608C106.374 2.70608 106.846 2.74195 107.265 2.8137C107.683 2.88545 108.036 3.02895 108.323 3.24419C108.61 3.45944 108.831 3.75241 108.987 4.12312C109.142 4.49382 109.22 4.97812 109.22 5.57603V26.3832L109.099 26.4048C108.843 26.4502 108.495 26.5088 108.054 26.5805C107.54 26.6642 107.019 26.7061 106.493 26.7061C105.967 26.7061 105.495 26.6702 105.076 26.5985C104.658 26.5267 104.305 26.3832 104.018 26.168C103.731 25.9527 103.51 25.6597 103.354 25.289C103.199 24.9183 103.121 24.434 103.121 23.8361V3.02895L103.242 3.00735C103.498 2.96196 103.846 2.90338 104.287 2.83164C104.801 2.74793 105.321 2.70608 105.848 2.70608ZM115.015 8.91235C115.541 8.91235 116.014 8.94823 116.432 9.01998C116.851 9.09173 117.203 9.23522 117.49 9.45047C117.777 9.66572 117.999 9.95869 118.154 10.3294C118.31 10.7001 118.387 11.1844 118.387 11.7823V26.3832L118.267 26.4048C118.011 26.4502 117.662 26.5088 117.221 26.5805C116.707 26.6642 116.187 26.7061 115.661 26.7061C115.135 26.7061 114.662 26.6702 114.244 26.5985C113.825 26.5267 113.473 26.3832 113.186 26.168C112.899 25.9527 112.677 25.6597 112.522 25.289C112.366 24.9183 112.289 24.434 112.289 23.8361V9.23522L112.409 9.21363C112.665 9.16823 113.014 9.10966 113.455 9.03791C113.969 8.95421 114.489 8.91235 115.015 8.91235ZM143.574 2.70608C144.101 2.70608 144.573 2.74195 144.991 2.8137C145.41 2.88545 145.763 3.02895 146.05 3.24419C146.337 3.45944 146.558 3.75241 146.713 4.12312C146.869 4.49382 146.947 4.97812 146.947 5.57603V9.09173L147.071 9.04604C147.378 8.93748 147.809 8.81519 148.364 8.67917C148.997 8.52371 149.697 8.44599 150.462 8.44599C152.83 8.44599 154.678 9.03791 156.005 10.2218C157.332 11.4056 157.996 13.1695 157.996 15.5133V26.3832L157.885 26.414C157.646 26.4755 157.307 26.537 156.866 26.5985C156.352 26.6702 155.82 26.7061 155.27 26.7061C154.743 26.7061 154.271 26.6702 153.852 26.5985C153.434 26.5267 153.081 26.3832 152.794 26.168C152.507 25.9527 152.286 25.6597 152.131 25.289C151.975 24.9183 151.897 24.434 151.897 23.8361V15.872L151.893 15.6509C151.858 14.7874 151.614 14.1735 151.162 13.8092C150.672 13.4146 150.068 13.2173 149.35 13.2173C148.872 13.2173 148.417 13.2771 147.987 13.3967C147.557 13.5162 147.21 13.6597 146.947 13.8272V26.3832L146.836 26.414C146.597 26.4755 146.257 26.537 145.817 26.5985C145.302 26.6702 144.77 26.7061 144.22 26.7061C143.694 26.7061 143.222 26.6702 142.803 26.5985C142.385 26.5267 142.032 26.3832 141.745 26.168C141.458 25.9527 141.237 25.6597 141.081 25.289C140.926 24.9183 140.848 24.434 140.848 23.8361V3.02895L140.968 3.00735C141.225 2.96196 141.573 2.90338 142.014 2.83164C142.528 2.74793 143.048 2.70608 143.574 2.70608ZM100.626 4.67917L100.708 4.81818C100.843 5.06233 100.965 5.36876 101.075 5.73747C101.206 6.17992 101.272 6.64031 101.272 7.11863C101.272 8.05137 101.075 8.71504 100.68 9.10966C100.285 9.50428 99.7533 9.70159 99.0836 9.70159H91.55V13.7554H99.4065L99.4997 13.8939C99.6508 14.1364 99.7812 14.437 99.8908 14.7958C100.022 15.2263 100.088 15.6807 100.088 16.159C100.088 17.0678 99.8908 17.7195 99.4962 18.1141C99.1016 18.5088 98.5694 18.7061 97.8998 18.7061H91.6217V26.2756L91.4998 26.3063C91.2377 26.3678 90.8658 26.4293 90.3841 26.4908C89.822 26.5626 89.266 26.5985 88.7159 26.5985C88.1658 26.5985 87.6815 26.5566 87.263 26.4729C86.8445 26.3892 86.4917 26.2397 86.2047 26.0245C85.9177 25.8092 85.7025 25.5103 85.559 25.1276C85.4155 24.7449 85.3437 24.2427 85.3437 23.6209V8.01549L85.3499 7.76288C85.3956 6.85306 85.6925 6.12411 86.2406 5.57603C86.8385 4.97812 87.6516 4.67917 88.68 4.67917H100.626ZM16.3082 3.44721V7.48913H4.7754V12.7795H14.8724V16.7746H4.7754V26.4191H0V3.44721H16.3082ZM22.8234 9.40866V26.4191H18.3133V9.40866H22.8234ZM47.4022 3.49403V15.8851L52.9423 9.48669H58.4512L52.5054 15.9943L58.6853 26.4191H53.3169L49.2437 19.1467L47.4022 21.0663V26.4191H43.0326V3.49403H47.4022ZM64.4827 3.416V26.4191H60.035V3.416H64.4827ZM158.328 4.53164C159.074 4.30745 160.346 4.25758 161.836 4.91629C163.339 5.58127 164.277 6.72186 164.649 8.33807L172.721 9.02409C172.821 9.02989 172.92 9.05014 173.019 9.08485C173.167 9.1369 173.247 9.21014 173.314 9.26747C173.478 9.40804 173.531 9.51643 173.609 9.71052C173.748 10.0556 173.706 10.4619 173.525 10.7404C173.233 11.1894 172.777 11.48 172.156 11.612L165.639 12.9971L166.79 18.4087C166.922 19.0299 167.213 19.43 167.663 19.609C168.113 19.788 168.696 19.8014 169.413 19.649C169.772 19.5728 170.135 19.4643 170.505 19.3233C170.875 19.1823 171.193 19.0335 171.459 18.877C171.73 19.0941 171.977 19.3475 172.201 19.637C172.425 19.9265 172.585 20.2983 172.682 20.7522C173.038 22.4304 170.397 24.0158 168.666 24.3269C167.062 24.6151 164.602 24.8544 163.195 21.1697C161.789 17.485 159.58 11.3086 157.894 6.16136C157.748 5.71717 157.658 5.28089 157.814 4.92089C157.899 4.7263 157.96 4.64231 158.328 4.53164ZM130.138 13.2173C128.966 13.2173 128.087 13.5461 127.501 14.2038C126.915 14.8615 126.622 15.8002 126.622 17.02C126.622 18.4071 126.915 19.4056 127.501 20.0155C128.087 20.6254 128.834 20.9303 129.743 20.9303C130.724 20.9303 131.501 20.7031 132.075 20.2487V13.6478L131.965 13.5904C131.806 13.5138 131.598 13.4373 131.34 13.3608C131.017 13.2651 130.616 13.2173 130.138 13.2173ZM74.6185 12.6235C73.5885 12.6235 72.79 12.946 72.2229 13.591C71.6559 14.2361 71.2996 15.11 71.1539 16.2128H78.0674C77.9945 15.0372 77.6382 14.145 76.9984 13.5364C76.3585 12.9278 75.5652 12.6235 74.6185 12.6235ZM22.8234 3.27554V7.37989H18.3133V3.27554H22.8234ZM115.338 0.912354C116.342 0.912354 117.15 1.22327 117.76 1.84509C118.369 2.46691 118.674 3.23223 118.674 4.14105C118.674 5.04987 118.369 5.81519 117.76 6.43702C117.15 7.05884 116.342 7.36975 115.338 7.36975C114.334 7.36975 113.526 7.05884 112.916 6.43702C112.307 5.81519 112.002 5.04987 112.002 4.14105C112.002 3.23223 112.307 2.46691 112.916 1.84509C113.526 1.22327 114.334 0.912354 115.338 0.912354Z" fill="white"/>
  </g>
  <defs>
    <clipPath id="clip0_1003_4174">
      <rect width="174" height="33" fill="white" transform="translate(0 0.386963)"/>
    </clipPath>
  </defs>
</svg>