<svg xmlns="http://www.w3.org/2000/svg" width="27" height="24" viewBox="0 0 27 24" fill="none">
  <g clip-path="url(#clip0_1810_14205)">
    <path d="M9.62327 21.75H8.25783C8.12063 21.75 7.98564 21.7185 7.86518 21.6585C7.74473 21.5984 7.64267 21.5118 7.56833 21.4064C7.49399 21.301 7.44974 21.1803 7.43964 21.0552C7.42953 20.9302 7.45389 20.8048 7.51048 20.6906L10.8169 14.0227L5.85216 13.9219L4.04149 15.9267C3.69629 16.3233 3.42084 16.5 2.71812 16.5H1.79893C1.6534 16.5043 1.50888 16.4764 1.37762 16.4188C1.24637 16.3612 1.13224 16.2755 1.04492 16.1691C0.922837 16.0186 0.80281 15.7636 0.919759 15.3998L1.9364 12.0717C1.94409 12.0469 1.95333 12.022 1.96359 11.9977C1.9641 11.9953 1.9641 11.9929 1.96359 11.9906C1.95299 11.9663 1.94392 11.9414 1.9364 11.9161L0.918733 8.56687C0.808452 8.21016 0.928992 7.96078 1.05005 7.81406C1.13133 7.71549 1.2368 7.63573 1.35795 7.58118C1.47911 7.52664 1.61258 7.49883 1.74764 7.5H2.71812C3.24285 7.5 3.7522 7.71516 4.05175 8.0625L5.82497 10.0336L10.8169 9.96609L7.51151 3.30984C7.45484 3.19568 7.43038 3.07036 7.44038 2.94533C7.45038 2.8203 7.49452 2.69956 7.56875 2.59414C7.64299 2.48872 7.74495 2.40198 7.86533 2.34186C7.98571 2.28175 8.12065 2.25016 8.25783 2.25H9.63815C9.83072 2.25354 10.0199 2.29667 10.1918 2.3762C10.3636 2.45572 10.5136 2.5696 10.6307 2.70937L17.045 9.83438L20.0082 9.76312C20.2252 9.75234 20.8263 9.74859 20.9653 9.74859C23.7998 9.75 25.4925 10.5909 25.4925 12C25.4925 12.4434 25.2986 13.2656 24.0014 13.7887C23.2356 14.0981 22.2138 14.2547 20.9643 14.2547C20.8268 14.2547 20.2272 14.2509 20.0072 14.2402L17.0444 14.168L10.6143 21.293C10.4971 21.4321 10.3472 21.5454 10.1757 21.6246C10.0042 21.7037 9.81537 21.7465 9.62327 21.75Z" fill="#1262AE"/>
  </g>
  <defs>
    <clipPath id="clip0_1810_14205">
      <rect width="26.2624" height="24" fill="white" transform="translate(0.0507812)"/>
    </clipPath>
  </defs>
</svg>